<svg width="20" height="20" viewBox="0 0 20 20" fill="none" xmlns="http://www.w3.org/2000/svg">
<g clip-path="url(#clip0_0_19)">
<path d="M19.5163 10.1878C19.5163 9.36841 19.4499 8.77047 19.3062 8.15039H9.9592V11.8487H15.4457C15.3351 12.7678 14.7378 14.1519 13.4104 15.082L13.3918 15.2058L16.3471 17.4976L16.5518 17.5181C18.4323 15.7796 19.5163 13.2218 19.5163 10.1878Z" fill="#4285F4"/>
<path d="M9.95619 19.9322C12.6441 19.9322 14.9006 19.0463 16.5488 17.5183L13.4074 15.0822C12.5667 15.669 11.4384 16.0787 9.95619 16.0787C7.32357 16.0787 5.08916 14.3403 4.29266 11.9375L4.17591 11.9474L1.1029 14.3281L1.06271 14.4399C2.6998 17.6954 6.06251 19.9322 9.95619 19.9322Z" fill="#34A853"/>
<path d="M4.29203 11.9363C4.08187 11.3163 3.96024 10.6518 3.96024 9.96534C3.96024 9.27878 4.08187 8.61443 4.28098 7.99435L4.27541 7.86229L1.1639 5.44336L1.06209 5.49183C0.38737 6.84275 0.000213623 8.35977 0.000213623 9.96534C0.000213623 11.5709 0.38737 13.0879 1.06209 14.4388L4.29203 11.9363Z" fill="#FBBC05"/>
<path d="M9.9562 3.85354C11.8256 3.85354 13.0865 4.66186 13.8056 5.33736L16.6152 2.59125C14.8896 0.985679 12.6441 0.000183105 9.9562 0.000183105C6.06251 0.000183105 2.69981 2.2369 1.06272 5.49232L4.28161 7.99484C5.08917 5.59202 7.32358 3.85354 9.9562 3.85354Z" fill="#EB4335"/>
</g>
<defs>
<clipPath id="clip0_0_19">
<rect width="19.5238" height="20" fill="white"/>
</clipPath>
</defs>
</svg>
