<svg width="33" height="34" viewBox="0 0 33 34" fill="#7B1984" xmlns="http://www.w3.org/2000/svg">
<path d="M10.9108 30.4605H21.8224C24.823 30.4605 27.2781 28.0054 27.2781 25.0047V10.0013C27.2781 7.27346 25.3686 5.09116 22.7771 4.68198C22.2316 3.72722 21.2768 3.18164 20.1856 3.18164H12.5476C11.4564 3.18164 10.5017 3.72722 9.95608 4.68198C7.3646 5.09116 5.45508 7.27346 5.45508 10.0013V25.0047C5.45508 28.0054 7.91017 30.4605 10.9108 30.4605ZM12.2748 6.04592C12.2748 6.04592 12.4112 5.90952 12.5476 5.90952H20.322L20.4584 6.04592V7.00068C20.4584 7.13707 20.322 7.27346 20.1856 7.27346H12.5476C12.4112 7.27346 12.2748 7.13707 12.2748 7.00068V6.04592ZM8.18296 10.0013C8.18296 8.91019 8.72854 8.09183 9.5469 7.54625V7.68265C9.5469 7.81904 9.6833 7.95543 9.6833 8.09183C9.6833 8.09183 9.6833 8.22822 9.81969 8.22822C9.81969 8.36462 9.95608 8.50101 9.95608 8.50101L10.0925 8.6374C10.0925 8.7738 10.2289 8.7738 10.3653 8.91019L10.5017 9.04659L10.7744 9.31938L10.9108 9.45577C11.0472 9.45577 11.0472 9.59216 11.1836 9.59216C11.1836 9.59216 11.32 9.59216 11.32 9.72856C11.4564 9.72856 11.5928 9.86495 11.7292 9.86495H11.8656C12.1384 10.0013 12.2748 10.0013 12.5476 10.0013H21.004C21.1404 10.0013 21.2768 10.0013 21.4132 9.86495C21.4132 9.86495 21.5496 9.86495 21.5496 9.72856C21.686 9.72856 21.686 9.59216 21.8224 9.59216L21.9588 9.45577C22.0952 9.45577 22.0952 9.31938 22.2316 9.18298L22.3679 9.04659L22.6407 8.7738L22.7771 8.6374C22.7771 8.50101 22.9135 8.50101 22.9135 8.36462C22.9135 8.36462 22.9135 8.22822 23.0499 8.22822C23.0499 8.09183 23.1863 7.95543 23.1863 7.81904V7.68265C24.0047 8.09183 24.5503 9.04659 24.5503 10.1377V25.1411C24.5503 26.6414 23.3227 27.869 21.8224 27.869H10.9108C9.41051 27.869 8.18296 26.6414 8.18296 25.1411V10.0013Z" fill="inherit"/>
<path d="M12.2761 22.2774H15.0039C15.8223 22.2774 16.3679 21.7318 16.3679 20.9135C16.3679 20.0951 15.8223 19.5495 15.0039 19.5495H12.2761C11.4577 19.5495 10.9121 20.0951 10.9121 20.9135C10.9121 21.7318 11.4577 22.2774 12.2761 22.2774ZM12.2761 16.8216H20.4597C21.2781 16.8216 21.8236 16.2761 21.8236 15.4577C21.8236 14.6393 21.2781 14.0938 20.4597 14.0938H12.2761C11.4577 14.0938 10.9121 14.6393 10.9121 15.4577C10.9121 16.2761 11.4577 16.8216 12.2761 16.8216Z" fill="inherit"/>
</svg>
